<?xml version="1.0" encoding="utf-8"?>
<!-- Generator: Adobe Illustrator 26.0.1, SVG Export Plug-In . SVG Version: 6.00 Build 0)  -->
<svg version="1.1" xmlns="http://www.w3.org/2000/svg" xmlns:xlink="http://www.w3.org/1999/xlink" x="0px" y="0px"
	 viewBox="0 0 2000 2000" style="enable-background:new 0 0 2000 2000;" xml:space="preserve">
<style type="text/css">
	.st0{fill:url(#SVGID_1_);}
	.st1{fill:url(#SVGID_00000108304423235630165520000016581003174766674081_);}
	.st2{fill:url(#SVGID_00000078728565178368123240000010484163841786377620_);}
	.st3{fill:url(#SVGID_00000038392386485726330420000010565854094709096361_);}
	.st4{fill:url(#SVGID_00000060742285207988172920000000357741830565842328_);}
	.st5{fill:url(#SVGID_00000005239596633881396460000005898416335276933780_);}
	.st6{fill:url(#SVGID_00000012447261744693596570000006368801984008645550_);}
	.st7{fill:url(#SVGID_00000086654813016213490930000016120333972765014444_);}
	.st8{fill:url(#SVGID_00000119827990533382357500000001197955709034973867_);}
	.st9{fill:url(#SVGID_00000016796925404514449570000010967346954906775978_);}
	.st10{fill:url(#SVGID_00000108291413032766069310000015340075539356988295_);}
	.st11{fill:url(#SVGID_00000129889752695160416240000000091108523881392820_);}
	.st12{fill:url(#SVGID_00000030486301244107611440000011777132345215159487_);}
	.st13{fill:url(#SVGID_00000016052945663235651070000000862587851698216838_);}
	.st14{fill:url(#SVGID_00000145764623138816263510000002712825719310441350_);}
	.st15{fill:#FFFFFF;}
	.st16{fill:url(#SVGID_00000033363768286826911310000016945374061958870197_);}
	.st17{fill:url(#SVGID_00000060032766676696402510000005847866547868482435_);}
	.st18{fill:#F2F2F2;}
	.st19{fill:url(#SVGID_00000157288107890621857540000010172786066546400139_);}
	.st20{fill:url(#SVGID_00000139984042838286969320000004436004565723301279_);}
	.st21{fill:url(#SVGID_00000182523483898361278370000015332936300414747059_);}
	.st22{fill:url(#SVGID_00000053546402846619395880000012803956100935606691_);}
	.st23{fill:url(#SVGID_00000035519586564957768250000017192625391935916695_);}
	.st24{fill:url(#SVGID_00000154395296510516755630000013681589916656958371_);}
	.st25{fill:url(#SVGID_00000063630115486685147740000017590509038988838311_);}
	.st26{fill:url(#SVGID_00000034791768103957389440000013034373972497502359_);}
	.st27{fill:url(#SVGID_00000037657769697526672990000013400164907541778107_);}
	.st28{fill:url(#SVGID_00000143582863799539324570000017309358460370932666_);}
	.st29{fill:url(#SVGID_00000065047640190252310760000010082778803861881021_);}
	.st30{opacity:0.83;fill:#F2F2F2;}
	.st31{fill:url(#SVGID_00000034056380601681456150000012417354686978222987_);}
	.st32{fill:url(#SVGID_00000041294359219085942130000014859318504207406211_);}
	.st33{fill:url(#SVGID_00000059997801236187929190000003008607489941552265_);}
	.st34{fill:url(#SVGID_00000113342176196614567570000015505797836164621464_);}
	.st35{fill:url(#SVGID_00000152235373247601605990000011877462882957941174_);}
	.st36{fill:url(#SVGID_00000050649613397750872190000008543961986309547958_);}
	.st37{fill:url(#SVGID_00000116229312071265387910000012313604582040814241_);}
	.st38{fill:url(#SVGID_00000102544120542995768440000015815939832855686827_);}
	.st39{fill:url(#SVGID_00000160877626501188276730000010385308218258574467_);}
	.st40{fill:url(#SVGID_00000005261482365209892590000011940465823506283140_);}
	.st41{fill:url(#SVGID_00000124854810081418699880000001416999728646543753_);}
	.st42{fill:url(#SVGID_00000157280422127068826780000008097356069547443586_);}
	.st43{fill:url(#SVGID_00000052069849416971914110000011352273702539259798_);}
	.st44{fill:url(#SVGID_00000044166573480100089730000007422180286647543706_);}
	.st45{fill:url(#SVGID_00000093136362198845172480000010144051351463566250_);}

		.st46{clip-path:url(#SVGID_00000027583712335557778920000007286985925296645260_);fill:url(#SVGID_00000012463775884428952670000000930889629614042547_);stroke:#000000;stroke-width:2;stroke-miterlimit:10;}
	.st47{clip-path:url(#SVGID_00000027583712335557778920000007286985925296645260_);fill:#FFFFFF;}
</style>
<g id="Layer_1">
	<g>
		<g>
			<linearGradient id="SVGID_1_" gradientUnits="userSpaceOnUse" x1="-207.21" y1="1319.5946" x2="-321.6225" y2="1545.2993">
				<stop  offset="0" style="stop-color:#19A582"/>
				<stop  offset="0.8545" style="stop-color:#0A4D75"/>
			</linearGradient>
			<path class="st0" d="M-285.4,1358.8l63.4,18.2c-33.8,66.3-44.9,114.5-63.4,212.2V1358.8z"/>
			<g>

					<linearGradient id="SVGID_00000060024662544152362180000004167366776127447484_" gradientUnits="userSpaceOnUse" x1="-559.9109" y1="1346.3077" x2="-489.1832" y2="1576.1729">
					<stop  offset="0" style="stop-color:#19A582"/>
					<stop  offset="0.8545" style="stop-color:#0A4D75"/>
				</linearGradient>

					<rect x="-539.6" y="1413.6" style="fill:url(#SVGID_00000060024662544152362180000004167366776127447484_);" width="41.2" height="131.3"/>

					<linearGradient id="SVGID_00000015326132355839002090000011388212055443722624_" gradientUnits="userSpaceOnUse" x1="-498.3937" y1="1327.3794" x2="-427.666" y2="1557.2445">
					<stop  offset="0" style="stop-color:#19A582"/>
					<stop  offset="0.8545" style="stop-color:#0A4D75"/>
				</linearGradient>

					<rect x="-484.7" y="1333.1" style="fill:url(#SVGID_00000015326132355839002090000011388212055443722624_);" width="41.2" height="211.7"/>

					<linearGradient id="SVGID_00000180348341807816813450000008097389073796237490_" gradientUnits="userSpaceOnUse" x1="-455.3615" y1="1314.1387" x2="-384.6338" y2="1544.0038">
					<stop  offset="0" style="stop-color:#19A582"/>
					<stop  offset="0.8545" style="stop-color:#0A4D75"/>
				</linearGradient>

					<rect x="-429.7" y="1384.1" style="fill:url(#SVGID_00000180348341807816813450000008097389073796237490_);" width="41.2" height="160.7"/>

					<linearGradient id="SVGID_00000155868449700407322050000017701304652597856175_" gradientUnits="userSpaceOnUse" x1="-395.2187" y1="1295.6332" x2="-324.491" y2="1525.4984">
					<stop  offset="0" style="stop-color:#19A582"/>
					<stop  offset="0.8545" style="stop-color:#0A4D75"/>
				</linearGradient>

					<rect x="-374.7" y="1313.5" style="fill:url(#SVGID_00000155868449700407322050000017701304652597856175_);" width="41.2" height="231.4"/>
			</g>

				<linearGradient id="SVGID_00000019666028120008429180000008977945864513937085_" gradientUnits="userSpaceOnUse" x1="-162.5997" y1="1304.1152" x2="-353.4608" y2="1501.8541">
				<stop  offset="0" style="stop-color:#19A582"/>
				<stop  offset="0.8545" style="stop-color:#0A4D75"/>
			</linearGradient>
			<path style="fill:url(#SVGID_00000019666028120008429180000008977945864513937085_);" d="M-285.4,1311.1l52.1,12.9
				c-27.2,69.2-37.2,125.7-52.1,227.7V1311.1z"/>

				<linearGradient id="SVGID_00000165922396904104318350000014002760566320349880_" gradientUnits="userSpaceOnUse" x1="-256.0392" y1="1249.2794" x2="-529.4348" y2="1598.3317">
				<stop  offset="1.118836e-07" style="stop-color:#17BD9C"/>
				<stop  offset="1" style="stop-color:#006A48"/>
			</linearGradient>
			<polygon style="fill:url(#SVGID_00000165922396904104318350000014002760566320349880_);" points="-489.4,1258.2 -502.7,1270.8
				-298,1270.8 -298,1579.1 -575.4,1579.1 -575.4,1354.8 -587.9,1368.2 -587.9,1591.7 -285.4,1591.7 -285.4,1258.2 			"/>
		</g>
		<g>

				<linearGradient id="SVGID_00000115479238876463351940000012894876587608792997_" gradientUnits="userSpaceOnUse" x1="-611.5651" y1="1635.3514" x2="-284.8659" y2="1728.2028">
				<stop  offset="0" style="stop-color:#19A582"/>
				<stop  offset="0.8545" style="stop-color:#0A4D75"/>
			</linearGradient>
			<path style="fill:url(#SVGID_00000115479238876463351940000012894876587608792997_);" d="M-581.7,1669v-47.8h8.9v47.8H-581.7z"/>

				<linearGradient id="SVGID_00000124847803644231286180000008462086307707027080_" gradientUnits="userSpaceOnUse" x1="-608.6824" y1="1625.2086" x2="-281.9832" y2="1718.0599">
				<stop  offset="0" style="stop-color:#19A582"/>
				<stop  offset="0.8545" style="stop-color:#0A4D75"/>
			</linearGradient>
			<path style="fill:url(#SVGID_00000124847803644231286180000008462086307707027080_);" d="M-559.9,1669v-47.8h7.3l30,36.8h-3.6
				v-36.8h8.8v47.8h-7.3l-30-36.8h3.6v36.8H-559.9z"/>

				<linearGradient id="SVGID_00000132072357222320724180000012318652055022756779_" gradientUnits="userSpaceOnUse" x1="-604.001" y1="1608.7371" x2="-277.3018" y2="1701.5884">
				<stop  offset="0" style="stop-color:#19A582"/>
				<stop  offset="0.8545" style="stop-color:#0A4D75"/>
			</linearGradient>
			<path style="fill:url(#SVGID_00000132072357222320724180000012318652055022756779_);" d="M-490.8,1669l-20.9-47.8h9.6l18.6,43.2
				h-5.5l18.8-43.2h8.9l-20.8,47.8H-490.8z"/>

				<linearGradient id="SVGID_00000016074514347375455340000005647492779299450517_" gradientUnits="userSpaceOnUse" x1="-600.8842" y1="1597.7706" x2="-274.1851" y2="1690.6219">
				<stop  offset="0" style="stop-color:#19A582"/>
				<stop  offset="0.8545" style="stop-color:#0A4D75"/>
			</linearGradient>
			<path style="fill:url(#SVGID_00000016074514347375455340000005647492779299450517_);" d="M-434.3,1669.7c-3.7,0-7.2-0.6-10.3-1.8
				c-3.1-1.2-5.9-2.9-8.2-5.2c-2.3-2.2-4.1-4.8-5.4-7.8c-1.3-3-1.9-6.2-1.9-9.8c0-3.5,0.6-6.8,1.9-9.8c1.3-3,3.1-5.6,5.4-7.8
				c2.3-2.2,5.1-3.9,8.2-5.2c3.1-1.2,6.6-1.8,10.2-1.8c3.7,0,7.2,0.6,10.3,1.8c3.1,1.2,5.8,2.9,8.2,5.2c2.3,2.2,4.1,4.8,5.4,7.8
				c1.3,3,1.9,6.2,1.9,9.8c0,3.6-0.6,6.8-1.9,9.8c-1.3,3-3.1,5.6-5.4,7.8c-2.3,2.2-5,3.9-8.2,5.1
				C-427.2,1669.1-430.6,1669.7-434.3,1669.7z M-434.3,1661.9c2.4,0,4.6-0.4,6.7-1.2c2-0.8,3.8-2,5.3-3.5c1.5-1.5,2.7-3.3,3.5-5.3
				c0.8-2,1.3-4.3,1.3-6.7c0-2.5-0.4-4.7-1.3-6.7c-0.8-2-2-3.8-3.5-5.3c-1.5-1.5-3.3-2.7-5.3-3.5s-4.3-1.2-6.7-1.2
				c-2.4,0-4.6,0.4-6.7,1.2c-2,0.8-3.8,2-5.3,3.5c-1.5,1.5-2.7,3.3-3.5,5.3c-0.8,2-1.3,4.3-1.3,6.7c0,2.4,0.4,4.6,1.3,6.7
				c0.8,2,2,3.8,3.5,5.4c1.5,1.5,3.3,2.7,5.3,3.5C-439,1661.5-436.8,1661.9-434.3,1661.9z"/>

				<linearGradient id="SVGID_00000012439739810589996400000001280759691718544573_" gradientUnits="userSpaceOnUse" x1="-597.9268" y1="1587.3649" x2="-271.2276" y2="1680.2162">
				<stop  offset="0" style="stop-color:#19A582"/>
				<stop  offset="0.8545" style="stop-color:#0A4D75"/>
			</linearGradient>
			<path style="fill:url(#SVGID_00000012439739810589996400000001280759691718544573_);" d="M-399.2,1669v-47.8h8.9v47.8H-399.2z"/>

				<linearGradient id="SVGID_00000163786883555516538990000009087604355433906345_" gradientUnits="userSpaceOnUse" x1="-594.9722" y1="1576.9694" x2="-268.2731" y2="1669.8207">
				<stop  offset="0" style="stop-color:#19A582"/>
				<stop  offset="0.8545" style="stop-color:#0A4D75"/>
			</linearGradient>
			<path style="fill:url(#SVGID_00000163786883555516538990000009087604355433906345_);" d="M-355.3,1669.7c-3.6,0-7-0.6-10.1-1.8
				c-3.1-1.2-5.8-2.9-8.1-5.1c-2.3-2.2-4.1-4.8-5.4-7.8c-1.3-3-1.9-6.3-1.9-9.8c0-3.5,0.6-6.8,1.9-9.8c1.3-3,3.1-5.6,5.4-7.8
				c2.3-2.2,5-3.9,8.1-5.1c3.1-1.2,6.5-1.8,10.2-1.8c3.9,0,7.5,0.7,10.7,2c3.2,1.3,6,3.3,8.2,6l-5.7,5.4c-1.7-1.9-3.7-3.3-5.8-4.2
				c-2.1-0.9-4.5-1.4-7-1.4c-2.5,0-4.8,0.4-6.9,1.2c-2.1,0.8-3.9,2-5.4,3.5c-1.5,1.5-2.7,3.3-3.5,5.3c-0.8,2-1.3,4.3-1.3,6.8
				c0,2.5,0.4,4.7,1.3,6.8c0.8,2,2,3.8,3.5,5.3c1.5,1.5,3.3,2.7,5.4,3.5c2.1,0.8,4.4,1.2,6.9,1.2c2.5,0,4.8-0.5,7-1.4
				c2.1-0.9,4.1-2.4,5.8-4.3l5.7,5.5c-2.2,2.6-5,4.6-8.2,5.9C-347.7,1669-351.3,1669.7-355.3,1669.7z"/>

				<linearGradient id="SVGID_00000104703189129784821420000014081676324615745454_" gradientUnits="userSpaceOnUse" x1="-591.6179" y1="1565.167" x2="-264.9188" y2="1658.0184">
				<stop  offset="0" style="stop-color:#19A582"/>
				<stop  offset="0.8545" style="stop-color:#0A4D75"/>
			</linearGradient>
			<path style="fill:url(#SVGID_00000104703189129784821420000014081676324615745454_);" d="M-318.9,1661.6h27v7.4h-35.8v-47.8h34.9
				v7.4h-26V1661.6z M-319.6,1641.1h23.8v7.3h-23.8V1641.1z"/>
		</g>
	</g>
	<g>
		<g>
			<g>

					<linearGradient id="SVGID_00000093877717700249110470000012404092769259765683_" gradientUnits="userSpaceOnUse" x1="-471.4301" y1="432.3805" x2="-376.6047" y2="205.4769">
					<stop  offset="0" style="stop-color:#19A582"/>
					<stop  offset="0.8545" style="stop-color:#0A4D75"/>
				</linearGradient>
				<path style="fill:url(#SVGID_00000093877717700249110470000012404092769259765683_);" d="M-354.7,268.4v-83.5
					c0-13.6-11-24.6-24.6-24.6h-199c-13.6,0-24.6,11-24.6,24.6v212.9c0,13.6,11,24.6,24.6,24.6h331.8c13.6,0,24.6-11,24.6-24.6
					v-80.2c0-13.6-11-24.6-24.6-24.6h-83.5C-343.7,293-354.7,282-354.7,268.4z"/>
			</g>
			<g>
				<path class="st15" d="M-429.4,225.5c0,5.8-4.7,10.5-10.5,10.5h-107.1c-5.8,0-10.5-4.7-10.5-10.5l0,0c0-5.8,4.7-10.5,10.5-10.5
					h107.1C-434.1,215-429.4,219.7-429.4,225.5L-429.4,225.5z"/>
				<path class="st15" d="M-429.4,271c0,5.8-4.7,10.5-10.5,10.5h-107.1c-5.8,0-10.5-4.7-10.5-10.5l0,0c0-5.8,4.7-10.5,10.5-10.5
					h107.1C-434.1,260.5-429.4,265.2-429.4,271L-429.4,271z"/>
				<path class="st15" d="M-429.4,316.5c0,5.8-4.7,10.5-10.5,10.5h-107.1c-5.8,0-10.5-4.7-10.5-10.5l0,0c0-5.8,4.7-10.5,10.5-10.5
					h107.1C-434.1,306-429.4,310.7-429.4,316.5L-429.4,316.5z"/>
			</g>

				<radialGradient id="SVGID_00000081626776231092926010000001866005167278740391_" cx="-266.5905" cy="280.8542" r="151.6098" gradientUnits="userSpaceOnUse">
				<stop  offset="1.118836e-07" style="stop-color:#17BD9C"/>
				<stop  offset="0.8508" style="stop-color:#006A48"/>
			</radialGradient>
			<path style="fill:url(#SVGID_00000081626776231092926010000001866005167278740391_);" d="M-296.7,232.8l-65.8-65.8
				c0,0,7.4,6.5,7.8,18v83.5c0,13.6,11,24.6,24.6,24.6h83.5c6.7,0,12.7,2.7,17.2,7L-296.7,232.8z"/>
			<g>

					<radialGradient id="SVGID_00000181805084629137751990000006049087512375452041_" cx="-527.2678" cy="402.256" r="53.5886" gradientUnits="userSpaceOnUse">
					<stop  offset="0" style="stop-color:#19A582"/>
					<stop  offset="0.8545" style="stop-color:#0A4D75"/>
				</radialGradient>
				<circle style="fill:url(#SVGID_00000181805084629137751990000006049087512375452041_);" cx="-527.3" cy="402.3" r="53.6"/>
				<path class="st18" d="M-508.7,380.6h-37.1v7.1h13.1c4.9,0.8,8.5,2.8,10,5.4h-23.1v7.1h22.6c-0.3,0.3-0.5,0.7-0.9,1
					c-4,3.6-12.3,3.8-19.8,3.7l-0.7,0v4.9l24.8,24.9h10l-22.9-23.1c4.3-0.5,9.7-1.8,13.4-5.1c1.9-1.7,3.2-3.8,3.9-6.2h6.7V393h-6.5
					c-0.4-2-1.3-3.8-2.6-5.4h9.1V380.6z"/>
			</g>
			<g>

					<radialGradient id="SVGID_00000181770319040164102020000008321180530795531950_" cx="-323.3334" cy="402.256" r="53.5886" gradientUnits="userSpaceOnUse">
					<stop  offset="0" style="stop-color:#19A582"/>
					<stop  offset="0.8545" style="stop-color:#0A4D75"/>
				</radialGradient>
				<circle style="fill:url(#SVGID_00000181770319040164102020000008321180530795531950_);" cx="-323.3" cy="402.3" r="53.6"/>
				<path class="st18" d="M-304.8,380.6h-37.1v7.1h13.1c4.9,0.8,8.5,2.8,10,5.4h-23.1v7.1h22.6c-0.3,0.3-0.5,0.7-0.9,1
					c-4,3.6-12.3,3.8-19.8,3.7l-0.7,0v4.9l24.8,24.9h10l-22.9-23.1c4.3-0.5,9.7-1.8,13.4-5.1c1.9-1.7,3.2-3.8,3.9-6.2h6.7V393h-6.5
					c-0.4-2-1.3-3.8-2.6-5.4h9.1V380.6z"/>
			</g>
		</g>
		<g>

				<linearGradient id="SVGID_00000025428192046286011910000003293352947533799840_" gradientUnits="userSpaceOnUse" x1="-525.1396" y1="484.341" x2="-325.5787" y2="567.4914">
				<stop  offset="0" style="stop-color:#19A582"/>
				<stop  offset="0.8545" style="stop-color:#0A4D75"/>
			</linearGradient>
			<path style="fill:url(#SVGID_00000025428192046286011910000003293352947533799840_);" d="M-468.7,539.1v-43.3h-17v-8.1h43.6v8.1
				h-17v43.3H-468.7z"/>

				<linearGradient id="SVGID_00000098919048227132107650000001185052836507990701_" gradientUnits="userSpaceOnUse" x1="-519.3391" y1="470.4196" x2="-319.7781" y2="553.57">
				<stop  offset="0" style="stop-color:#19A582"/>
				<stop  offset="0.8545" style="stop-color:#0A4D75"/>
			</linearGradient>
			<path style="fill:url(#SVGID_00000098919048227132107650000001185052836507990701_);" d="M-425.4,531.1h29v8h-38.5v-51.4h37.5v8
				h-28V531.1z M-426.1,509.1h25.5v7.8h-25.5V509.1z"/>

				<linearGradient id="SVGID_00000166660559083360292500000000767184674923676334_" gradientUnits="userSpaceOnUse" x1="-512.8016" y1="454.7296" x2="-313.2406" y2="537.8799">
				<stop  offset="0" style="stop-color:#19A582"/>
				<stop  offset="0.8545" style="stop-color:#0A4D75"/>
			</linearGradient>
			<path style="fill:url(#SVGID_00000166660559083360292500000000767184674923676334_);" d="M-385.8,539.1v-51.4h21.1
				c4.5,0,8.4,0.7,11.7,2.2c3.3,1.5,5.8,3.6,7.5,6.3c1.8,2.7,2.6,6,2.6,9.8c0,3.8-0.9,7-2.6,9.7c-1.8,2.7-4.3,4.8-7.5,6.2
				c-3.3,1.4-7.2,2.2-11.7,2.2h-15.8l4.3-4.3v19.3H-385.8z M-376.2,520.8l-4.3-4.5h15.4c4.2,0,7.4-0.9,9.5-2.7
				c2.1-1.8,3.2-4.3,3.2-7.6c0-3.3-1.1-5.8-3.2-7.6c-2.1-1.8-5.3-2.6-9.5-2.6h-15.4l4.3-4.7V520.8z M-352.2,539.1l-13-18.6h10.2
				l13.1,18.6H-352.2z"/>
		</g>
	</g>
	<g>

			<linearGradient id="SVGID_00000032635463128387577480000015474232008164043442_" gradientUnits="userSpaceOnUse" x1="-573.8945" y1="1063.0135" x2="-340.3315" y2="1160.3314">
			<stop  offset="0" style="stop-color:#19A582"/>
			<stop  offset="0.8545" style="stop-color:#0A4D75"/>
		</linearGradient>
		<path style="fill:url(#SVGID_00000032635463128387577480000015474232008164043442_);" d="M-507.8,1127.1v-50.7h-19.9v-9.4h51v9.4
			h-19.9v50.7H-507.8z"/>

			<linearGradient id="SVGID_00000155128560835014518760000001718001835799712676_" gradientUnits="userSpaceOnUse" x1="-567.1056" y1="1046.7201" x2="-333.5426" y2="1144.0381">
			<stop  offset="0" style="stop-color:#19A582"/>
			<stop  offset="0.8545" style="stop-color:#0A4D75"/>
		</linearGradient>
		<path style="fill:url(#SVGID_00000155128560835014518760000001718001835799712676_);" d="M-457.1,1117.7h33.9v9.4h-45.1V1067h43.9
			v9.4h-32.7V1117.7z M-458,1092h29.9v9.2H-458V1092z"/>

			<linearGradient id="SVGID_00000022525495391912670500000016010365020902454157_" gradientUnits="userSpaceOnUse" x1="-559.4542" y1="1028.3568" x2="-325.8912" y2="1125.6747">
			<stop  offset="0" style="stop-color:#19A582"/>
			<stop  offset="0.8545" style="stop-color:#0A4D75"/>
		</linearGradient>
		<path style="fill:url(#SVGID_00000022525495391912670500000016010365020902454157_);" d="M-410.8,1127.1V1067h24.7
			c5.3,0,9.9,0.9,13.7,2.6c3.8,1.7,6.7,4.2,8.8,7.4c2.1,3.2,3.1,7,3.1,11.4c0,4.4-1,8.2-3.1,11.4c-2.1,3.2-5,5.6-8.8,7.3
			c-3.8,1.7-8.4,2.5-13.7,2.5h-18.5l5-5.1v22.6H-410.8z M-399.6,1105.7l-5-5.3h18c4.9,0,8.6-1.1,11.1-3.2c2.5-2.1,3.7-5.1,3.7-8.8
			c0-3.8-1.2-6.8-3.7-8.8c-2.5-2.1-6.2-3.1-11.1-3.1h-18l5-5.5V1105.7z M-371.4,1127.1l-15.2-21.8h11.9l15.3,21.8H-371.4z"/>
	</g>
	<g>
		<g>

				<linearGradient id="SVGID_00000067210357749260581510000004036771490721008523_" gradientUnits="userSpaceOnUse" x1="1272.8888" y1="1132.2482" x2="696.3363" y2="1868.3499">
				<stop  offset="1.118836e-07" style="stop-color:#17BD9C"/>
				<stop  offset="1" style="stop-color:#006A48"/>
			</linearGradient>
			<polygon style="fill:url(#SVGID_00000067210357749260581510000004036771490721008523_);" points="1742.8,1500.3 984.6,1877.6
				226.4,1500.3 466.7,1380.7 931,1727.1 1731.7,1494.8 			"/>

				<linearGradient id="SVGID_00000150102593848493003760000017241717220602601906_" gradientUnits="userSpaceOnUse" x1="1179.4954" y1="1035.004" x2="815.6896" y2="1499.4856">
				<stop  offset="1.118836e-07" style="stop-color:#17BD9C"/>
				<stop  offset="1" style="stop-color:#006A48"/>
			</linearGradient>
			<polygon style="fill:url(#SVGID_00000150102593848493003760000017241717220602601906_);" points="1747.5,1482.3 1734.4,1483.7
				1713.7,1485.8 1713.7,1485.8 905.1,1569.5 645.9,1291.6 510.1,1145.9 327.6,950.2 594.5,922.6 702.3,1090.1 786.7,1221.5
				907.7,1409.9 1679.3,1468.7 1718.3,1471.7 1739,1473.2 			"/>

				<linearGradient id="SVGID_00000000937186078575291830000004937149244123473599_" gradientUnits="userSpaceOnUse" x1="1277.198" y1="853.3796" x2="954.439" y2="1265.4554">
				<stop  offset="1.118836e-07" style="stop-color:#17BD9C"/>
				<stop  offset="1" style="stop-color:#006A48"/>
			</linearGradient>
			<polygon style="fill:url(#SVGID_00000000937186078575291830000004937149244123473599_);" points="1758.2,1467.1 1745.5,1463.8
				1725.3,1458.6 1687.5,1448.7 1585.6,1422.1 1585.6,1422.1 938.8,1253.2 902,1164.2 853.3,1046.3 793.6,902 717.5,717.9
				615.3,470.6 875,538.4 917.1,733.1 950,885.7 976.9,1010.4 997.3,1104.6 1603.6,1386.1 1699.1,1430.4 1734.6,1446.9
				1753.4,1455.7 			"/>

				<linearGradient id="SVGID_00000072990725020519273440000000650453833284363709_" gradientUnits="userSpaceOnUse" x1="1053.0615" y1="789.5432" x2="1773.5651" y2="789.5432">
				<stop  offset="0" style="stop-color:#19A582"/>
				<stop  offset="0.8545" style="stop-color:#0A4D75"/>
			</linearGradient>
			<path style="fill:url(#SVGID_00000072990725020519273440000000650453833284363709_);" d="M1773.6,1456.7L1773.6,1456.7l-10.8-7.6
				l-17-12l-32-22.5l-86.1-60.7l-546.3-385l-3.2-96.3l-4.3-127.5l-5.2-156.1l-6.7-199.1l-8.9-267.4c0,0,0,0,0,0l692.2,487.8
				L1773.6,1456.7z"/>
		</g>
		<path class="st30" d="M1540.9,670.9l-191.6-121.2v36.4l67.7,42.8c25.2,20,44,42.2,51.7,60.5L1349.3,614v36.4l116.9,73.9
			c-1.3,1-2.8,1.7-4.5,2.1c-20.7,5.6-63.7-20.7-102.3-45.8l-3.4-2.2v25.1L1483.9,913l51.5,32.6L1417,751.7
			c22.2,11.5,50,22.4,69.1,17.2c9.8-2.6,16.5-9.2,20-19.3l34.8,22v-36.4l-33.5-21.2c-2.3-11.6-6.9-23.8-13.7-36.5l47.2,29.9V670.9z"
			/>
	</g>
</g>
<g id="Layer_2">
	<g>
		<g>

				<linearGradient id="SVGID_00000029027793344369719860000001585925090727795879_" gradientUnits="userSpaceOnUse" x1="2256.9592" y1="733.4695" x2="2930.1821" y2="361.0874">
				<stop  offset="0" style="stop-color:#19A582"/>
				<stop  offset="0.8545" style="stop-color:#0A4D75"/>
			</linearGradient>
			<path style="fill:url(#SVGID_00000029027793344369719860000001585925090727795879_);" d="M2655.6,494H2608v8.5h16.8
				c6.3,1,10.9,3.4,12.9,6.5H2608v8.5h29.1c-0.3,0.4-0.7,0.8-1.1,1.2c-5.1,4.4-15.8,4.6-25.4,4.4l-0.9,0v5.9l31.8,30h12.8
				l-29.4-27.8c5.5-0.6,12.4-2.2,17.2-6.2c2.4-2.1,4.1-4.6,5-7.5h8.6V509h-8.3c-0.6-2.4-1.7-4.6-3.4-6.5h11.7V494z"/>

				<linearGradient id="SVGID_00000170245940289533580850000017616174540686040239_" gradientUnits="userSpaceOnUse" x1="2208.2119" y1="645.3403" x2="2881.4348" y2="272.9581">
				<stop  offset="0" style="stop-color:#19A582"/>
				<stop  offset="0.8545" style="stop-color:#0A4D75"/>
			</linearGradient>
			<path style="fill:url(#SVGID_00000170245940289533580850000017616174540686040239_);" d="M2529.4,468h-0.4v-0.4
				C2529.1,467.7,2529.3,467.9,2529.4,468z"/>

				<linearGradient id="SVGID_00000082334148140661423110000018397254864878926229_" gradientUnits="userSpaceOnUse" x1="2285.4324" y1="784.9455" x2="2958.6553" y2="412.5633">
				<stop  offset="0" style="stop-color:#19A582"/>
				<stop  offset="0.8545" style="stop-color:#0A4D75"/>
			</linearGradient>
			<path style="fill:url(#SVGID_00000082334148140661423110000018397254864878926229_);" d="M2529.4,650c-0.1,0.1-0.3,0.3-0.4,0.4
				V650H2529.4z"/>

				<linearGradient id="SVGID_00000150076010814289795930000002543709523182211239_" gradientUnits="userSpaceOnUse" x1="2357.5898" y1="915.3978" x2="3030.8127" y2="543.0157">
				<stop  offset="0" style="stop-color:#19A582"/>
				<stop  offset="0.8545" style="stop-color:#0A4D75"/>
			</linearGradient>
			<path style="fill:url(#SVGID_00000150076010814289795930000002543709523182211239_);" d="M2837.4,650c-0.1,0.1-0.3,0.3-0.4,0.4
				V650H2837.4z"/>
			<g>

					<linearGradient id="SVGID_00000065037607447878719050000015263775411486288782_" gradientUnits="userSpaceOnUse" x1="2246.7964" y1="715.0963" x2="2920.0193" y2="342.7141">
					<stop  offset="0" style="stop-color:#19A582"/>
					<stop  offset="0.8545" style="stop-color:#0A4D75"/>
				</linearGradient>
				<path style="fill:url(#SVGID_00000065037607447878719050000015263775411486288782_);" d="M2529,650v0.4c0.1-0.2,0.3-0.3,0.4-0.4
					H2529z M2529,467.6v0.4h0.4C2529.3,467.9,2529.1,467.7,2529,467.6z"/>

					<linearGradient id="SVGID_00000183967585459779087420000003357596013268861098_" gradientUnits="userSpaceOnUse" x1="2253.429" y1="727.0871" x2="2926.6519" y2="354.7049">
					<stop  offset="0" style="stop-color:#19A582"/>
					<stop  offset="0.8545" style="stop-color:#0A4D75"/>
				</linearGradient>
				<path style="fill:url(#SVGID_00000183967585459779087420000003357596013268861098_);" d="M2798.5,430
					c-26.7-74.7-98-128.1-181.8-128.1c-83.8,0-155.1,53.4-181.8,128.1c0,0,0,0,0,0c-34.5,0.8-65.6,15.2-88.3,38
					c-23.2,23.3-37.6,55.5-37.6,91c0,38.2,16.6,72.5,43,96.1c22.8,20.4,53,32.9,86,32.9h308c35.5,0,67.7-14.4,91-37.6V650h0.4
					c23.2-23.3,37.6-55.5,37.6-91v-58.9c0-38.7-31.4-70.1-70.1-70.1H2798.5z M2485.6,636.6c-13.5,8.3-29.3,13.2-46.2,13.4
					c-50.2,0.8-92-40-92.4-90.2c-0.4-46.3,33.9-84.8,78.4-90.9c-1.2,8.5-1.8,17.2-1.8,26.1c0,15.2,1.8,30,5.1,44.2
					c2.5,10.6,13.5,17.1,23.8,13.5c9.6-3.4,15.1-13.4,12.9-23.3c-2.5-11-3.8-22.5-3.8-34.3c0-7.9,0.6-15.7,1.8-23.3
					c0.2-1.2,0.4-2.4,0.6-3.6c2-11.5,5.3-22.5,9.7-33c0.7-1.7,1.4-3.3,2.2-5c11.8-25.5,30.2-47.2,53.2-63c11.6-8,24.4-14.4,38-19
					c15.6-5.3,32.3-8.1,49.7-8.1c62.5,0,116.3,36.9,140.9,90.2h-162.7c-36.4,0-65.9,29.5-65.9,65.8V559c0,19-5.9,36.7-15.9,51.3
					C2505.9,620.9,2496.5,629.8,2485.6,636.6z M2837,559c0,50.3-40.7,91-91,91h-216.6c-0.1,0.1-0.3,0.3-0.4,0.4V650h0.4
					c5.5-5.5,10.5-11.5,14.9-17.9c14.3-20.8,22.7-46,22.7-73.1v-62c0-16,13-29,29-29h212.7c15.6,0,28.3,12.7,28.3,28.3V559z"/>

					<linearGradient id="SVGID_00000047755968356501789380000013835605807090377603_" gradientUnits="userSpaceOnUse" x1="2208.2119" y1="645.3403" x2="2881.4348" y2="272.9581">
					<stop  offset="0" style="stop-color:#19A582"/>
					<stop  offset="0.8545" style="stop-color:#0A4D75"/>
				</linearGradient>
				<path style="fill:url(#SVGID_00000047755968356501789380000013835605807090377603_);" d="M2529.4,468h-0.4v-0.4
					C2529.1,467.7,2529.3,467.9,2529.4,468z"/>

					<linearGradient id="SVGID_00000119110885132065450730000002406335935693905311_" gradientUnits="userSpaceOnUse" x1="2285.4324" y1="784.9455" x2="2958.6553" y2="412.5633">
					<stop  offset="0" style="stop-color:#19A582"/>
					<stop  offset="0.8545" style="stop-color:#0A4D75"/>
				</linearGradient>
				<path style="fill:url(#SVGID_00000119110885132065450730000002406335935693905311_);" d="M2529.4,650c-0.1,0.1-0.3,0.3-0.4,0.4
					V650H2529.4z"/>
			</g>
			<g>

					<linearGradient id="SVGID_00000111884242654323148020000002832224599873161350_" gradientUnits="userSpaceOnUse" x1="2357.5898" y1="915.3978" x2="3030.8127" y2="543.0157">
					<stop  offset="0" style="stop-color:#19A582"/>
					<stop  offset="0.8545" style="stop-color:#0A4D75"/>
				</linearGradient>
				<path style="fill:url(#SVGID_00000111884242654323148020000002832224599873161350_);" d="M2837,650v0.4c0.1-0.2,0.3-0.3,0.4-0.4
					H2837z"/>

					<linearGradient id="SVGID_00000177448646717795130790000016811461690746260876_" gradientUnits="userSpaceOnUse" x1="2357.5898" y1="915.3978" x2="3030.8127" y2="543.0157">
					<stop  offset="0" style="stop-color:#19A582"/>
					<stop  offset="0.8545" style="stop-color:#0A4D75"/>
				</linearGradient>
				<path style="fill:url(#SVGID_00000177448646717795130790000016811461690746260876_);" d="M2837.4,650c-0.1,0.1-0.3,0.3-0.4,0.4
					V650H2837.4z"/>
			</g>

				<linearGradient id="SVGID_00000040551654562164573320000009838740296730145439_" gradientUnits="userSpaceOnUse" x1="2285.4324" y1="784.9455" x2="2958.6553" y2="412.5633">
				<stop  offset="0" style="stop-color:#19A582"/>
				<stop  offset="0.8545" style="stop-color:#0A4D75"/>
			</linearGradient>
			<path style="fill:url(#SVGID_00000040551654562164573320000009838740296730145439_);" d="M2529,650v0.4c0.1-0.2,0.3-0.3,0.4-0.4
				H2529z"/>

				<linearGradient id="SVGID_00000163064249470394058270000014999433051209459895_" gradientUnits="userSpaceOnUse" x1="2274.2673" y1="764.7608" x2="2947.4905" y2="392.3786">
				<stop  offset="0" style="stop-color:#19A582"/>
				<stop  offset="0.8545" style="stop-color:#0A4D75"/>
			</linearGradient>
			<path style="fill:url(#SVGID_00000163064249470394058270000014999433051209459895_);" d="M2803,512h-111c-5,0-9-4-9-9l0,0
				c0-5,4-9,9-9h111c5,0,9,4,9,9l0,0C2812,508,2808,512,2803,512z"/>

				<linearGradient id="SVGID_00000058548954963779124070000017232159692653202824_" gradientUnits="userSpaceOnUse" x1="2291.6328" y1="805.1554" x2="2964.8557" y2="432.7732">
				<stop  offset="0" style="stop-color:#19A582"/>
				<stop  offset="0.8545" style="stop-color:#0A4D75"/>
			</linearGradient>
			<path style="fill:url(#SVGID_00000058548954963779124070000017232159692653202824_);" d="M2803,562h-111c-5,0-9-4-9-9l0,0
				c0-5,4-9,9-9h111c5,0,9,4,9,9l0,0C2812,558,2808,562,2803,562z"/>

				<linearGradient id="SVGID_00000031194981507877466900000002181564856046527647_" gradientUnits="userSpaceOnUse" x1="2289.0508" y1="829.3738" x2="2962.2737" y2="456.9917">
				<stop  offset="0" style="stop-color:#19A582"/>
				<stop  offset="0.8545" style="stop-color:#0A4D75"/>
			</linearGradient>
			<path style="fill:url(#SVGID_00000031194981507877466900000002181564856046527647_);" d="M2792,613h-191c-5,0-9-4-9-9l0,0
				c0-5,4-9,9-9h191c5,0,9,4,9,9l0,0C2801,609,2797,613,2792,613z"/>
		</g>
		<g>

				<text transform="matrix(1 0 0 1 2515.5156 789.9248)" style="fill:#1A1A1A; font-family:'AspireNarrowSC-Regular'; font-size:84.5159px;">TER</text>
		</g>
	</g>
	<g>

			<text transform="matrix(1 0 0 1 2481.5156 1528.4443)" style="fill:#1A1A1A; font-family:'AspireNarrowSC-Regular'; font-size:84.5159px;">INVOICE</text>
		<g>

				<linearGradient id="SVGID_00000117661717908194934000000017556210510780673210_" gradientUnits="userSpaceOnUse" x1="2671.1423" y1="1209.4209" x2="2778.4543" y2="1100.7329">
				<stop  offset="0" style="stop-color:#19A582"/>
				<stop  offset="0.8545" style="stop-color:#0A4D75"/>
			</linearGradient>
			<path style="fill:url(#SVGID_00000117661717908194934000000017556210510780673210_);" d="M2811.2,1222.2
				c-5.1-3.9-11.5-6.2-18.4-6.2h-91.6c-16.7,0-30.2-13.5-30.2-30.2v-110.6c0-5.8-1.6-11.2-4.5-15.8
				C2714.8,1113.7,2763,1168,2811.2,1222.2z"/>
			<g>
				<defs>
					<path id="SVGID_00000003803805717918046770000009043488582242435469_" d="M2819.4,1249.5v143.6c0,16.7-13.5,30.2-30.2,30.2
						h-314.6c-16.7,0-30.2-13.5-30.2-30.2v-314.6c0-16.7,13.5-30.2,30.2-30.2h162.6c4.4,0,8.5,0.9,12.2,2.6c2.8,1.3,5.5,2.9,7.8,5
						c1.8,1.6,3.4,3.4,4.8,5.4c0.3,0.5,0.6,1,0.9,1.5c2.8,4.6,4.5,10,4.5,15.8v110.6c0,16.7,13.5,30.2,30.2,30.2h91.6
						c6.9,0,13.3,2.3,18.4,6.2c0.7,0.5,1.4,1.1,2,1.7c1.5,1.4,2.9,2.9,4.1,4.6c0.5,0.7,1,1.5,1.5,2.2c0.8,1.3,1.5,2.7,2.1,4.2
						C2818.6,1241.7,2819.4,1245.5,2819.4,1249.5z"/>
				</defs>
				<clipPath id="SVGID_00000015345287227795355760000003467000080394416263_">
					<use xlink:href="#SVGID_00000003803805717918046770000009043488582242435469_"  style="overflow:visible;"/>
				</clipPath>

					<linearGradient id="SVGID_00000123432749830060653630000005646124608312885148_" gradientUnits="userSpaceOnUse" x1="2413.1675" y1="1389.0656" x2="2842.416" y2="1088.2247">
					<stop  offset="0" style="stop-color:#19A582"/>
					<stop  offset="0.8545" style="stop-color:#0A4D75"/>
				</linearGradient>

					<path style="clip-path:url(#SVGID_00000015345287227795355760000003467000080394416263_);fill:url(#SVGID_00000123432749830060653630000005646124608312885148_);stroke:#000000;stroke-width:2;stroke-miterlimit:10;" d="
					M2819.4,1249.5v143.6c0,16.7-13.5,30.2-30.2,30.2h-314.6c-16.7,0-30.2-13.5-30.2-30.2v-314.6c0-16.7,13.5-30.2,30.2-30.2h162.6
					c4.4,0,8.5,0.9,12.2,2.6c2.8,1.3,5.5,2.9,7.8,5c1.8,1.6,3.4,3.4,4.8,5.4c0.3,0.5,0.6,1,0.9,1.5c2.8,4.6,4.5,10,4.5,15.8v110.6
					c0,16.7,13.5,30.2,30.2,30.2h91.6c6.9,0,13.3,2.3,18.4,6.2c0.7,0.5,1.4,1.1,2,1.7c1.5,1.4,2.9,2.9,4.1,4.6
					c0.5,0.7,1,1.5,1.5,2.2c0.8,1.3,1.5,2.7,2.1,4.2C2818.6,1241.7,2819.4,1245.5,2819.4,1249.5z"/>
				<path style="clip-path:url(#SVGID_00000015345287227795355760000003467000080394416263_);fill:#FFFFFF;" d="M2692.5,1154.8h-145
					c-5.8,0-10.5-4.7-10.5-10.5l0,0c0-5.8,4.7-10.5,10.5-10.5h145c5.8,0,10.5,4.7,10.5,10.5l0,0
					C2703,1150.1,2698.3,1154.8,2692.5,1154.8z"/>
				<path style="clip-path:url(#SVGID_00000015345287227795355760000003467000080394416263_);fill:#FFFFFF;" d="M2513.7,1154.6
					L2513.7,1154.6c-5.7,0-10.3-4.6-10.3-10.3l0,0c0-5.7,4.6-10.3,10.3-10.3l0,0c5.7,0,10.3,4.6,10.3,10.3l0,0
					C2524,1150,2519.4,1154.6,2513.7,1154.6z"/>
				<path style="clip-path:url(#SVGID_00000015345287227795355760000003467000080394416263_);fill:#FFFFFF;" d="M2692.5,1199.3h-145
					c-5.8,0-10.5-4.7-10.5-10.5v0c0-5.8,4.7-10.5,10.5-10.5h145c5.8,0,10.5,4.7,10.5,10.5v0
					C2703,1194.6,2698.3,1199.3,2692.5,1199.3z"/>
				<path style="clip-path:url(#SVGID_00000015345287227795355760000003467000080394416263_);fill:#FFFFFF;" d="M2513.7,1199.1
					L2513.7,1199.1c-5.7,0-10.3-4.6-10.3-10.3v0c0-5.7,4.6-10.3,10.3-10.3l0,0c5.7,0,10.3,4.6,10.3,10.3v0
					C2524,1194.5,2519.4,1199.1,2513.7,1199.1z"/>
				<path style="clip-path:url(#SVGID_00000015345287227795355760000003467000080394416263_);fill:#FFFFFF;" d="M2692.5,1242.9h-145
					c-5.8,0-10.5-4.7-10.5-10.5l0,0c0-5.8,4.7-10.5,10.5-10.5h145c5.8,0,10.5,4.7,10.5,10.5l0,0
					C2703,1238.2,2698.3,1242.9,2692.5,1242.9z"/>
				<path style="clip-path:url(#SVGID_00000015345287227795355760000003467000080394416263_);fill:#FFFFFF;" d="M2513.7,1242.6
					L2513.7,1242.6c-5.7,0-10.3-4.6-10.3-10.3l0,0c0-5.7,4.6-10.3,10.3-10.3l0,0c5.7,0,10.3,4.6,10.3,10.3l0,0
					C2524,1238,2519.4,1242.6,2513.7,1242.6z"/>
				<path style="clip-path:url(#SVGID_00000015345287227795355760000003467000080394416263_);fill:#FFFFFF;" d="M2693.5,1286.9h-145
					c-5.8,0-10.5-4.7-10.5-10.5l0,0c0-5.8,4.7-10.5,10.5-10.5h145c5.8,0,10.5,4.7,10.5,10.5l0,0
					C2704,1282.2,2699.3,1286.9,2693.5,1286.9z"/>
				<path style="clip-path:url(#SVGID_00000015345287227795355760000003467000080394416263_);fill:#FFFFFF;" d="M2514.7,1286.6
					L2514.7,1286.6c-5.7,0-10.3-4.6-10.3-10.3l0,0c0-5.7,4.6-10.3,10.3-10.3l0,0c5.7,0,10.3,4.6,10.3,10.3l0,0
					C2525,1282,2520.4,1286.6,2514.7,1286.6z"/>

					<linearGradient id="SVGID_00000150072680611101761210000001920010849791555203_" gradientUnits="userSpaceOnUse" x1="2443.3726" y1="1235.785" x2="2820.3726" y2="1235.785">
					<stop  offset="0" style="stop-color:#0A4D75"/>
					<stop  offset="1" style="stop-color:#18A181"/>
				</linearGradient>

					<use xlink:href="#SVGID_00000003803805717918046770000009043488582242435469_"  style="overflow:visible;fill:none;stroke:url(#SVGID_00000150072680611101761210000001920010849791555203_);stroke-width:2;stroke-miterlimit:10;"/>
			</g>
		</g>
	</g>
</g>
</svg>
